  <svg
    id="Layer_1"
    xmlns="http://www.w3.org/2000/svg"
    viewBox="500 500 1044.32 1044.32"
    width="100%"
    height="100%"
  >
    <defs>
      <style>
      .cls-1{font-family:Barlow-Medium, Barlow;font-size:138px;font-weight:500;}.cls-1,.cls-2{fill:#fff;}.cls-3{letter-spacing:0em;}.cls-4{letter-spacing:0em;}.cls-5{letter-spacing:0em;}.cls-6{letter-spacing:0em;}
      </style>
    </defs>
    <path
      class="cls-2" 
      d="m1022.16,487.51c-289.26,0-524.6,235.33-524.6,524.6s235.33,524.6,524.6,524.6,524.6-235.33,524.6-524.6-235.33-524.6-524.6-524.6Zm0,975.02c-208.5,0-384.31-142.43-435.39-335.09l287.91-234.95,92.92,113.86h0s44.49,54.52,44.49,54.52h0s.15.18.15.18l54.51-44.49-.15-.18,207.04-168.96-44.49-54.51-207.04,168.96-92.92-113.86h0s-44.49-54.52-44.49-54.52l-311.44,254.16c-.92-11.74-1.53-23.56-1.53-35.53,0-248.36,202.06-450.42,450.42-450.42s450.42,202.06,450.42,450.42c0,23.46-1.82,46.5-5.29,69.01l-147.84-181.16h-.01s0,0,0,0l-317.92,259.45-137.55-168.55-54.51,44.49,182.03,223.06,54.51-44.49h0s263.42-214.97,263.42-214.97l136.14,166.83c-62.96,172.93-228.98,296.76-423.4,296.76Z"
    />
  </svg>
