<?xml version="1.0" encoding="UTF-8"?><svg id="Layer_1" xmlns="http://www.w3.org/2000/svg" viewBox="0 0 2000 292.85"><defs><style>.cls-1{fill:#1d1d1b;font-family:Barlow-Medium, Barlow;font-size:138px;font-weight:500;}.cls-2{letter-spacing:0em;}.cls-3{letter-spacing:0em;}.cls-4{letter-spacing:0em;}.cls-5{letter-spacing:0em;}</style></defs><path d="m454.54,61.03c-50.7,0-91.95,41.25-91.95,91.95s41.25,91.95,91.95,91.95,91.95-41.25,91.95-91.95-41.25-91.95-91.95-91.95Zm0,170.89c-36.54,0-67.36-24.96-76.31-58.73l50.46-41.18,16.29,19.96h0s7.8,9.55,7.8,9.55h0s.03.03.03.03l9.55-7.8-.03-.03,36.29-29.61-7.8-9.55-36.29,29.61-16.29-19.96h0s-7.8-9.56-7.8-9.56l-54.58,44.55c-.16-2.06-.27-4.13-.27-6.23,0-43.53,35.42-78.95,78.95-78.95s78.95,35.42,78.95,78.95c0,4.11-.32,8.15-.93,12.09l-25.91-31.75h0s0,0,0,0l-55.72,45.47-24.11-29.54-9.55,7.8,31.9,39.1,9.55-7.8h0s46.17-37.68,46.17-37.68l23.86,29.24c-11.03,30.31-40.13,52.01-74.21,52.01Z"/><text class="cls-1" transform="translate(597.98 202.56)"><tspan x="0" y="0">M</tspan><tspan class="cls-4" x="98.67" y="0">a</tspan><tspan class="cls-3" x="169.05" y="0">ts Vinger</tspan><tspan class="cls-2" x="707.79" y="0">h</tspan><tspan x="781.76" y="0">o</tspan><tspan class="cls-5" x="858.35" y="0">e</tspan><tspan x="931.22" y="0">ts</tspan></text></svg>
